<svg width="65" height="66" viewBox="0 0 65 66" fill="none" xmlns="http://www.w3.org/2000/svg">
<g filter="url(#filter0_d_1_95)">
<path d="M33.6052 58.4252C33.0651 59.1916 31.9249 59.1916 31.3848 58.4252L11.5018 30.2512C1.81028 16.0836 0.100015 15.166 0 3.67048C0 2.99487 0.470072 2.43018 1.13017 2.30918C9.48146 0.847035 24.9938 0.16134 32.0049 0H33.0051C40.0062 0.16134 55.5285 0.847035 63.8798 2.30918C64.5399 2.4201 65.01 2.99487 65.01 3.67048C64.91 15.176 63.1997 16.0937 53.5082 30.2512L33.6152 58.4252H33.6052ZM33.5952 42.8761L50.9078 19.2801C50.9678 19.1995 51.0179 19.1188 51.0579 19.028C51.818 17.3037 53.1682 13.4618 53.4482 9.85182C53.5082 9.12579 52.9982 8.48043 52.278 8.37959C46.0571 7.49222 35.8055 7.05862 32.9951 7.05862H31.9949C29.1845 7.05862 18.9329 7.50231 12.712 8.37959C12.0018 8.48043 11.4918 9.12579 11.5418 9.85182C11.8218 13.4618 13.172 17.3037 13.9321 19.028C13.9721 19.1188 14.0222 19.1995 14.0822 19.2801L31.3948 42.8761C31.9349 43.6223 33.0351 43.6223 33.5852 42.8761H33.5952Z" fill="#22F4AD"/>
</g>
<defs>
<filter id="filter0_d_1_95" x="0" y="0" width="65.01" height="66" filterUnits="userSpaceOnUse" color-interpolation-filters="sRGB">
<feFlood flood-opacity="0" result="BackgroundImageFix"/>
<feColorMatrix in="SourceAlpha" type="matrix" values="0 0 0 0 0 0 0 0 0 0 0 0 0 0 0 0 0 0 127 0" result="hardAlpha"/>
<feOffset dy="7"/>
<feComposite in2="hardAlpha" operator="out"/>
<feColorMatrix type="matrix" values="0 0 0 0 0 0 0 0 0 0 0 0 0 0 0 0 0 0 0.38 0"/>
<feBlend mode="normal" in2="BackgroundImageFix" result="effect1_dropShadow_1_95"/>
<feBlend mode="normal" in="SourceGraphic" in2="effect1_dropShadow_1_95" result="shape"/>
</filter>
</defs>
</svg>
