<?xml version="1.0" encoding="UTF-8"?>
<svg id="Layer_2" data-name="Layer 2" xmlns="http://www.w3.org/2000/svg" viewBox="0 0 426.67 426.67">
  <defs>
    <style>
      .cls-1 {
        fill: #22f4ad;
      }
    </style>
  </defs>
  <g id="Layer_1-2" data-name="Layer 1">
    <path class="cls-1" d="M277.33,76.49v328.84c0,8.2-4.7,15.68-12.09,19.23-7.39,3.55-16.16,2.55-22.57-2.57l-94.98-75.99c-3.78-3.03-8.48-4.67-13.33-4.67h-70.37c-14.49,0-27.84-4.82-38.57-12.93h0c-.65-.49-1.29-1-1.93-1.52-.14-.11-.27-.22-.4-.33-.69-.57-1.37-1.16-2.04-1.76-.09-.08-.18-.17-.27-.25-.65-.59-1.28-1.2-1.91-1.82-.06-.06-.12-.12-.18-.18-.64-.64-1.27-1.3-1.88-1.97-.11-.12-.23-.25-.34-.38-.6-.66-1.18-1.34-1.75-2.02-.09-.11-.19-.23-.28-.35-.58-.71-1.15-1.42-1.7-2.16-.01-.02-.03-.03-.04-.05-.55-.74-1.09-1.5-1.61-2.26-.09-.13-.18-.26-.27-.4-.5-.74-.98-1.5-1.45-2.26-.09-.14-.17-.28-.26-.42-.48-.79-.94-1.59-1.38-2.4-.02-.04-.04-.08-.06-.12-.43-.8-.84-1.6-1.24-2.42-.06-.13-.13-.26-.19-.39-.39-.81-.76-1.64-1.12-2.47-.07-.16-.14-.32-.2-.49-.35-.85-.69-1.7-1.01-2.56-.04-.1-.07-.2-.1-.29-.3-.84-.59-1.68-.86-2.53-.04-.11-.07-.22-.11-.34-.27-.88-.52-1.77-.76-2.66-.05-.18-.09-.35-.14-.53-.23-.89-.44-1.79-.62-2.7-.03-.14-.05-.28-.08-.42-.18-.9-.34-1.8-.48-2.71-.01-.07-.03-.15-.04-.22-.14-.94-.26-1.89-.36-2.84-.02-.18-.04-.36-.06-.54-.09-.93-.16-1.87-.21-2.82,0-.17-.02-.34-.02-.51-.05-.99-.08-1.98-.08-2.98h0v-128h0c0-1,.03-1.99.08-2.98,0-.17.01-.34.02-.51.05-.94.12-1.88.21-2.82.02-.18.04-.36.06-.54.1-.95.22-1.9.36-2.84.01-.07.03-.15.04-.22.14-.91.3-1.81.48-2.71.03-.14.05-.28.08-.42.19-.91.4-1.81.62-2.7.04-.18.09-.35.14-.53.23-.89.48-1.78.76-2.66.03-.11.07-.22.11-.34.27-.85.55-1.69.86-2.53.04-.1.07-.2.1-.29.32-.86.66-1.72,1.01-2.56.07-.16.14-.32.2-.48.36-.83.73-1.66,1.12-2.47.06-.13.13-.26.19-.39.4-.82.81-1.62,1.24-2.42.02-.04.04-.08.06-.12.44-.81.91-1.61,1.38-2.4.08-.14.17-.28.25-.42.47-.76.95-1.52,1.45-2.26.09-.13.18-.26.27-.4.52-.77,1.06-1.52,1.61-2.26.01-.02.03-.03.04-.05.55-.73,1.12-1.45,1.7-2.16.09-.12.19-.23.28-.35.57-.69,1.16-1.36,1.75-2.02.11-.13.23-.25.34-.38.61-.67,1.24-1.33,1.88-1.97.06-.06.12-.12.18-.17.62-.62,1.26-1.23,1.91-1.82.09-.08.18-.17.27-.25.67-.6,1.35-1.19,2.04-1.76.13-.11.27-.22.4-.33.63-.52,1.27-1.03,1.93-1.53h0c10.73-8.11,24.08-12.93,38.57-12.93h70.37c4.84,0,9.54-1.65,13.33-4.67L242.67,4.67c6.4-5.12,15.18-6.12,22.57-2.57,7.39,3.55,12.09,11.03,12.09,19.23v55.16ZM426.67,213.33h0c0-54.85-17.82-105.18-47.48-141.49-7.45-9.13-20.89-10.48-30.02-3.03-9.12,7.45-10.48,20.89-3.03,30.02,22.9,28.04,37.86,68.61,37.86,114.5s-14.95,86.46-37.86,114.5c-7.45,9.13-6.1,22.56,3.03,30.02,9.13,7.45,22.56,6.1,30.02-3.03,29.66-36.32,47.48-86.64,47.48-141.49h0ZM362.67,213.33h0c0-29.66-9.62-57.27-26.14-77.5-7.45-9.13-20.89-10.48-30.02-3.03-9.12,7.45-10.48,20.89-3.03,30.02,9.76,11.95,16.52,29.8,16.52,50.5s-6.76,38.55-16.52,50.5c-7.45,9.13-6.1,22.56,3.03,30.02,9.13,7.45,22.56,6.1,30.02-3.03,16.52-20.23,26.14-47.83,26.14-77.49h0Z"/>
  </g>
</svg>