<?xml version="1.0" encoding="UTF-8"?>
<svg id="Layer_2" data-name="Layer 2" xmlns="http://www.w3.org/2000/svg" viewBox="0 0 426.67 426.67">
  <defs>
    <style>
      .cls-1 {
        fill: #22f4ad;
      }
    </style>
  </defs>
  <g id="Layer_1-2" data-name="Layer 1">
    <g>
      <path class="cls-1" d="M265.24,2.11c7.39,3.55,12.09,11.03,12.09,19.23v225.83l22.68,22.68c.8-2.12,1.95-4.16,3.46-6.01,9.76-11.95,16.52-29.8,16.52-50.5s-6.76-38.55-16.52-50.5c-7.45-9.13-6.1-22.56,3.03-30.02,9.13-7.45,22.56-6.1,30.02,3.03,16.52,20.23,26.14,47.83,26.14,77.5s-9.62,57.27-26.14,77.5c-2.48,3.03-5.62,5.21-9.04,6.49l23.81,23.82c19.97-27.62,32.7-65.44,32.7-107.8,0-45.89-14.95-86.46-37.86-114.5-7.45-9.13-6.1-22.56,3.03-30.02,9.13-7.45,22.56-6.1,30.02,3.03,29.66,36.32,47.48,86.64,47.48,141.5s-16.79,102.22-44.9,138.27l38.65,38.65c8.33,8.33,8.33,21.84,0,30.17-8.33,8.33-21.84,8.33-30.17,0L6.25,36.42C-2.08,28.09-2.08,14.58,6.25,6.25c8.33-8.33,21.84-8.33,30.17,0l79.08,79.08h18.86c4.84,0,9.54-1.65,13.33-4.67L242.67,4.68c6.4-5.12,15.18-6.12,22.57-2.57h0Z"/>
      <path class="cls-1" d="M25.42,98.26l251.91,251.91v55.16c0,8.2-4.7,15.68-12.09,19.23s-16.16,2.55-22.57-2.57l-94.98-75.99c-3.78-3.03-8.48-4.67-13.33-4.67h-70.37C28.65,341.33,0,312.68,0,277.33v-128C0,128.47,9.98,109.95,25.42,98.26h0Z"/>
    </g>
  </g>
</svg>